<?xml version="1.0" encoding="UTF-8" standalone="no"?>
<svg
   width="511.4248"
   height="512.08289"
   viewBox="0 0 511.4248 512.08289"
   version="1.1"
   id="svg11"
   sodipodi:docname="stepsicon-template.svg"
   inkscape:export-filename="..\Source\Repos\stepscalc\stepsicon.svg"
   inkscape:export-xdpi="96"
   inkscape:export-ydpi="96"
   inkscape:version="1.3.2 (091e20e, 2023-11-25, custom)"
   xmlns:inkscape="http://www.inkscape.org/namespaces/inkscape"
   xmlns:sodipodi="http://sodipodi.sourceforge.net/DTD/sodipodi-0.dtd"
   xmlns="http://www.w3.org/2000/svg"
   xmlns:svg="http://www.w3.org/2000/svg">
  <style
     id="style1"><![CDATA[
#keylines circle, #keylines rect { 
   vector-effect: non-scaling-stroke;
   fill: none;
   stroke: #0000FF;
}
#mask path, #mask rect, #mask circle, #hatching path { 
   vector-effect: non-scaling-stroke;
   fill: none;
   stroke: #FF0000;
}
#keylines, #mask {
   opacity: 0.5;
}
]]></style>
  <inkscape:_templateinfo>
    <inkscape:_name>Android O icon template</inkscape:_name>
    <inkscape:author>Venceslas DUET</inkscape:author>
    <inkscape:_shortdesc>A collection of keylines and guides used to make adaptive icons for android O</inkscape:_shortdesc>
    <inkscape:date>2021-02-14</inkscape:date>
    <inkscape:_keywords>Android Icon Adaptive Keylines</inkscape:_keywords>
  </inkscape:_templateinfo>
  <defs
     id="defs1">
    <clipPath
       clipPathUnits="userSpaceOnUse"
       id="clipHatching">
      <rect
         width="8"
         height="8"
         x="0"
         y="0"
         id="rect1" />
    </clipPath>
    <pattern
       patternUnits="userSpaceOnUse"
       width="8"
       height="8"
       id="hatching">
      <path
         d="M 1,-1 -1,1 M 9,7 7,9 M 9,-1 -1,9"
         clip-path="url(#clipHatching)"
         id="path1" />
    </pattern>
  </defs>
  <sodipodi:namedview
     id="base"
     inkscape:current-layer="layer1"
     showgrid="true"
     units="px"
     showguides="true"
     inkscape:guide-bbox="true"
     inkscape:document-units="px"
     inkscape:cx="178.01542"
     inkscape:cy="256.6581"
     pagecolor="#ffffff"
     bordercolor="#000000"
     borderopacity="0.25"
     inkscape:showpageshadow="2"
     inkscape:pageopacity="0.0"
     inkscape:pagecheckerboard="0"
     inkscape:deskcolor="#d1d1d1"
     inkscape:zoom="1.5195312"
     inkscape:window-width="1920"
     inkscape:window-height="1013"
     inkscape:window-x="-9"
     inkscape:window-y="-9"
     inkscape:window-maximized="1">
    <inkscape:grid
       type="xygrid"
       empspacing="8"
       id="grid1"
       visible="true"
       originx="-0.28761676"
       originy="0.37047878"
       spacingy="1"
       spacingx="1"
       units="px" />
    <sodipodi:guide
       position="255.71238,255.62952"
       orientation="0,1"
       inkscape:locked="false"
       id="guide1" />
    <sodipodi:guide
       position="255.71238,199.62952"
       orientation="0,1"
       inkscape:locked="false"
       id="guide2" />
    <sodipodi:guide
       position="255.71238,311.62952"
       orientation="0,1"
       inkscape:locked="false"
       id="guide3" />
    <sodipodi:guide
       position="255.71238,255.62952"
       orientation="1,0"
       inkscape:locked="false"
       id="guide4" />
    <sodipodi:guide
       position="199.71238,255.62952"
       orientation="1,0"
       inkscape:locked="false"
       id="guide5" />
    <sodipodi:guide
       position="311.71238,255.62952"
       orientation="1,0"
       inkscape:locked="false"
       id="guide6" />
    <sodipodi:guide
       position="255.71238,255.62952"
       orientation="1,1"
       inkscape:locked="false"
       id="guide7" />
    <sodipodi:guide
       position="255.71238,255.62952"
       orientation="1,-1"
       inkscape:locked="false"
       id="guide8" />
  </sodipodi:namedview>
  <g
     inkscape:label="Calque 1"
     inkscape:groupmode="layer"
     id="layer1"
     transform="translate(-0.28761676,0.37047878)">
    <rect
       style="fill:#008000;stroke:none;stroke-width:3.075;stroke-dasharray:none"
       id="rect15"
       width="511.42477"
       height="512.08289"
       x="0.28761676"
       y="-0.37047878" />
    <path
       sodipodi:type="star"
       style="fill:#ffff00;stroke:#2b0000;stroke-width:2.5;stroke-dasharray:none"
       id="path12"
       inkscape:flatsided="false"
       sodipodi:sides="5"
       sodipodi:cx="170.4473"
       sodipodi:cy="160.57584"
       sodipodi:r1="42.287579"
       sodipodi:r2="21.143789"
       sodipodi:arg1="1.2047398"
       sodipodi:arg2="1.8330583"
       inkscape:rounded="0"
       inkscape:randomized="0"
       d="m 185.58354,200.0617 -20.61811,-19.06507 -27.39406,6.17644 11.7606,-25.50042 -14.33936,-24.14468 27.88656,3.30494 18.53185,-21.09867 5.47424,27.54298 25.79268,11.10499 -24.5033,13.71756 z"
       inkscape:transform-center-x="-3.3879777"
       inkscape:transform-center-y="-0.67786709"
       transform="translate(121.74807,3.2904885)" />
    <path
       style="fill:#d45500;stroke:#2b0000;stroke-width:2.5;stroke-dasharray:none"
       id="path13"
       sodipodi:type="arc"
       sodipodi:cx="205.98457"
       sodipodi:cy="-216.77612"
       sodipodi:rx="28.627249"
       sodipodi:ry="47.383034"
       sodipodi:start="5.6422936"
       sodipodi:end="3.7704901"
       sodipodi:arc-type="arc"
       d="m 228.93111,-245.10693 a 28.627249,47.383034 0 0 1 -3.6176,63.28245 28.627249,47.383034 0 0 1 -38.40322,0.3812 28.627249,47.383034 0 0 1 -4.0759,-63.20608"
       sodipodi:open="true"
       transform="scale(1,-1)" />
    <path
       style="fill:#d45500;stroke:#2b0000;stroke-width:2.5;stroke-dasharray:none"
       id="path14"
       sodipodi:type="arc"
       sodipodi:cx="205.98456"
       sodipodi:cy="259.2905"
       sodipodi:rx="25.994858"
       sodipodi:ry="16.123394"
       sodipodi:start="5.7225863"
       sodipodi:end="3.7012984"
       sodipodi:arc-type="arc"
       d="m 228.00056,250.71779 a 25.994858,16.123394 0 0 1 -5.05664,20.79205 25.994858,16.123394 0 0 1 -33.90112,0.009 25.994858,16.123394 0 0 1 -5.08658,-20.78924"
       sodipodi:open="true" />
    <path
       style="fill:#d45500;stroke:#2b0000;stroke-width:2.5;stroke-dasharray:none"
       id="path13-6"
       sodipodi:type="arc"
       sodipodi:cx="291.91693"
       sodipodi:cy="-292.63626"
       sodipodi:rx="28.627249"
       sodipodi:ry="47.383034"
       sodipodi:start="5.6422936"
       sodipodi:end="3.7704901"
       sodipodi:arc-type="arc"
       d="m 314.86347,-320.96707 a 28.627249,47.383034 0 0 1 -3.6176,63.28245 28.627249,47.383034 0 0 1 -38.40322,0.3812 28.627249,47.383034 0 0 1 -4.0759,-63.20608"
       sodipodi:open="true"
       transform="scale(1,-1)" />
    <path
       style="fill:#d45500;stroke:#2b0000;stroke-width:2.5;stroke-dasharray:none"
       id="path14-3"
       sodipodi:type="arc"
       sodipodi:cx="291.9169"
       sodipodi:cy="335.15063"
       sodipodi:rx="25.994858"
       sodipodi:ry="16.123394"
       sodipodi:start="5.7225863"
       sodipodi:end="3.7012984"
       sodipodi:arc-type="arc"
       d="m 313.9329,326.57793 a 25.994858,16.123394 0 0 1 -5.05664,20.79205 25.994858,16.123394 0 0 1 -33.90111,0.009 25.994858,16.123394 0 0 1 -5.08659,-20.78924"
       sodipodi:open="true" />
  </g>
  <g
     inkscape:label="Keylines"
     inkscape:groupmode="layer"
     id="keylines"
     sodipodi:insensitive="true"
     style="display:none"
     transform="translate(-0.28761676,0.37047878)">
    <circle
       cx="256"
       cy="256"
       r="80"
       id="circle8" />
    <circle
       cx="256"
       cy="256"
       r="176"
       id="circle9" />
    <rect
       width="256"
       height="352"
       x="128"
       y="80"
       ry="24"
       id="rect9" />
    <rect
       width="352"
       height="256"
       x="80"
       y="128"
       ry="24"
       id="rect10" />
    <rectn
       width="304"
       height="304"
       x="104"
       y="104"
       ry="24" />
  </g>
  <g
     inkscape:label="Mask"
     inkscape:groupmode="layer"
     id="mask"
     sodipodi:insensitive="true"
     style="display:none"
     transform="translate(-0.28761676,0.37047878)">
    <path
       d="M 0,0 V 512 H 512 V 0 Z M 64,64 H 448 V 448 H 64 Z"
       style="fill:url(#hatching)"
       id="path10" />
    <path
       d="m 256,512 c 112.1778,0 174.5778,0 215.2889,-40.7111 C 512,430.5778 512,368.1778 512,256 512,143.8222 512,81.4222 471.2889,40.7111 430.5778,0 368.1778,0 256,0 143.8222,0 81.4222,0 40.7111,40.7111 0,81.4222 0,143.8222 0,256 0,368.1778 0,430.5778 40.7111,471.2889 81.4222,512 143.8222,512 256,512 Z"
       id="path11" />
    <circle
       cx="256"
       cy="256"
       r="256"
       id="circle11" />
    <rect
       width="512"
       height="512"
       x="0"
       y="0"
       ry="128"
       id="rect11" />
  </g>
</svg>
